<?xml version="1.0" encoding="UTF-8"?>
<svg width="22px" height="20px" viewBox="0 0 22 20" version="1.1" xmlns="http://www.w3.org/2000/svg" xmlns:xlink="http://www.w3.org/1999/xlink">
    <title>light/qa_move</title>
    <g id="Page-1" stroke="none" stroke-width="1" fill="none" fill-rule="evenodd">
        <g id="Artboard" transform="translate(-454, -278)" stroke="#39393C">
            <g id="light/qa_move" transform="translate(455.05, 278.6866)">
                <path d="M20,16 C20,17.1045695 19.1045695,18 18,18 L2,18 C0.8954305,18 0,17.1045695 0,16 L0,2 C0,0.8954305 0.8954305,0 2,0 L7,0 L9,3 L18,3 C19.1045695,3 20,3.8954305 20,5 L20,16 Z" id="Path" stroke-width="1.3" fill-opacity="0.535834039" fill="#8030FE" stroke-linecap="round" stroke-linejoin="round"></path>
                <g id="corner-left-down" transform="translate(3.2807, 6.5505)" stroke-width="2">
                    <polyline id="Path" stroke-linecap="square" points="5 5.5 2.5 8 0 5.5"></polyline>
                    <path d="M8,0 L4.5,0 C3.3954305,0 2.5,0.8954305 2.5,2 L2.5,8" id="Path" stroke-linecap="round" stroke-linejoin="round"></path>
                </g>
            </g>
        </g>
    </g>
</svg>