<?xml version="1.0" encoding="UTF-8"?>
<svg width="23px" height="20px" viewBox="0 0 23 20" version="1.1" xmlns="http://www.w3.org/2000/svg" xmlns:xlink="http://www.w3.org/1999/xlink">
    <title>dark/qa_edit</title>
    <g id="Page-1" stroke="none" stroke-width="1" fill="none" fill-rule="evenodd" stroke-linecap="round" stroke-linejoin="round">
        <g id="Artboard" transform="translate(-380, -302)" stroke="#DBDBDB">
            <g id="dark/qa_edit" transform="translate(381.5164, 302.9866)">
                <path d="M20,16 C20,17.1045695 19.1045695,18 18,18 L2,18 C0.8954305,18 0,17.1045695 0,16 L0,2 C0,0.8954305 0.8954305,0 2,0 L7,0 L9,3 L18,3 C19.1045695,3 20,3.8954305 20,5 L20,16 Z" id="Path" stroke-width="1.3" fill-opacity="0.640667682" fill="#8030FE"></path>
                <g id="settings" transform="translate(4.776, 5.2449)">
                    <circle id="Oval" cx="5.22402202" cy="5.22402202" r="1.42473328"></circle>
                    <path d="M8.73836411,6.6487553 C8.60902375,6.94181822 8.67108541,7.28409766 8.89508477,7.51309349 L8.92357943,7.54158815 C9.10193424,7.71974465 9.20214961,7.96149576 9.20214961,8.21358735 C9.20214961,8.46567894 9.10193424,8.70743005 8.92357943,8.88558655 C8.74542294,9.06394135 8.50367183,9.16415672 8.25158024,9.16415672 C7.99948865,9.16415672 7.75773753,9.06394135 7.57958104,8.88558655 L7.55108638,8.85709188 C7.32209055,8.63309252 6.97981111,8.57103087 6.68674819,8.70037122 C6.39967839,8.82340562 6.21308274,9.10516505 6.21183709,9.41748697 L6.21183709,9.49822186 C6.21183709,10.0227942 5.78658722,10.448044 5.26201491,10.448044 C4.7374426,10.448044 4.31219272,10.0227942 4.31219272,9.49822186 L4.31219272,9.45547986 C4.30466852,9.13380872 4.1012713,8.84942927 3.79928874,8.73836411 C3.50622582,8.60902375 3.16394638,8.67108541 2.93495055,8.89508477 L2.90645589,8.92357943 C2.7282994,9.10193424 2.48654828,9.20214961 2.23445669,9.20214961 C1.9823651,9.20214961 1.74061399,9.10193424 1.5624575,8.92357943 C1.38410269,8.74542294 1.28388732,8.50367183 1.28388732,8.25158024 C1.28388732,7.99948865 1.38410269,7.75773753 1.5624575,7.57958104 L1.59095216,7.55108638 C1.81495152,7.32209055 1.87701317,6.97981111 1.74767282,6.68674819 C1.62463842,6.39967839 1.34287899,6.21308274 1.03055707,6.21183709 L0.949822186,6.21183709 C0.425249877,6.21183709 0,5.78658722 0,5.26201491 C0,4.7374426 0.425249877,4.31219272 0.949822186,4.31219272 L0.992564184,4.31219272 C1.31423532,4.30466852 1.59861477,4.1012713 1.70967993,3.79928874 C1.83902029,3.50622582 1.77695863,3.16394638 1.55295927,2.93495055 L1.52446461,2.90645589 C1.34610981,2.7282994 1.24589443,2.48654828 1.24589443,2.23445669 C1.24589443,1.9823651 1.34610981,1.74061399 1.52446461,1.5624575 C1.7026211,1.38410269 1.94437221,1.28388732 2.1964638,1.28388732 C2.4485554,1.28388732 2.69030651,1.38410269 2.868463,1.5624575 L2.89695767,1.59095216 C3.1259535,1.81495152 3.46823294,1.87701317 3.76129586,1.74767282 L3.79928874,1.74767282 C4.08635854,1.62463842 4.27295419,1.34287899 4.27419984,1.03055707 L4.27419984,0.949822186 C4.27419984,0.425249877 4.69944971,0 5.22402202,0 C5.74859433,0 6.17384421,0.425249877 6.17384421,0.949822186 L6.17384421,0.992564184 C6.17508985,1.3048861 6.3616855,1.58664553 6.6487553,1.70967993 C6.94181822,1.83902029 7.28409766,1.77695863 7.51309349,1.55295927 L7.54158815,1.52446461 C7.71974465,1.34610981 7.96149576,1.24589443 8.21358735,1.24589443 C8.46567894,1.24589443 8.70743005,1.34610981 8.88558655,1.52446461 C9.06394135,1.7026211 9.16415672,1.94437221 9.16415672,2.1964638 C9.16415672,2.4485554 9.06394135,2.69030651 8.88558655,2.868463 L8.85709188,2.89695767 C8.63309252,3.1259535 8.57103087,3.46823294 8.70037122,3.76129586 L8.70037122,3.79928874 C8.82340562,4.08635854 9.10516505,4.27295419 9.41748697,4.27419984 L9.49822186,4.27419984 C10.0227942,4.27419984 10.448044,4.69944971 10.448044,5.22402202 C10.448044,5.74859433 10.0227942,6.17384421 9.49822186,6.17384421 L9.45547986,6.17384421 C9.14315794,6.17508985 8.86139851,6.3616855 8.73836411,6.6487553 Z" id="Path"></path>
                </g>
            </g>
        </g>
    </g>
</svg>